<svg id="Layer_1" data-name="Layer 1" xmlns="http://www.w3.org/2000/svg" viewBox="0 0 113.84 23.36"><defs><style>.cls-1,.cls-12,.cls-14{fill:none;}.cls-1,.cls-12,.cls-13,.cls-14{stroke:#1b5a90;}.cls-1,.cls-10,.cls-11,.cls-12,.cls-13,.cls-14{stroke-miterlimit:10;}.cls-1{stroke-width:0.75px;}.cls-2{fill:#0ce0ff;}.cls-3{fill:#0ddafa;}.cls-4{fill:#0dd4f5;}.cls-5{fill:#11afd7;}.cls-10,.cls-11,.cls-6{fill:#12a9d2;}.cls-7{fill:#1780b0;}.cls-8{fill:#1970a2;}.cls-13,.cls-9{fill:#1b5a90;}.cls-10,.cls-11{stroke:#12a9d2;}.cls-10{stroke-width:1.5px;}.cls-14{stroke-width:1.25px;}</style></defs><title>logo5</title><path class="cls-1" d="M83.23,48c-.19.47.23.95.64,1.38a3.1,3.1,0,0,0,.88.69,2.13,2.13,0,0,0,1.39.14,1.4,1.4,0,0,0,.8-.64c.34-.48.69-1,.44-1.51" transform="translate(-45.82 -34.92)"/><path class="cls-2" d="M55.63,48.93c-.83,0-1.24-.09-1.24-.28L54.09,43l-1.71,5.69c0,.11-.35.17-1,.17s-.91,0-.93-.15L48.74,43l-.2,5.59c0,.14-.19.23-.53.28a5.15,5.15,0,0,1-.86.08,4.83,4.83,0,0,1-.67,0c-.45-.07-.67-.18-.66-.35l.32-9.11c0-.23.57-.34,1.71-.34.34,0,.75,0,1.24.08s.75.15.81.3l1.57,4.42,1.37-4.43c.09-.25.73-.37,1.94-.37.34,0,.76,0,1.24.08s.72.14.72.27l.41,9.2c0,.1-.19.18-.55.22A7.13,7.13,0,0,1,55.63,48.93Z" transform="translate(-45.82 -34.92)"/><path class="cls-3" d="M63.09,43c.18,0,.27.33.27,1a5,5,0,0,1-.07.7c0,.26-.12.4-.23.4H61.28v1.4h2.58c.16,0,.27.2.32.62a3.24,3.24,0,0,1,0,.56,4.43,4.43,0,0,1-.09.78c-.06.32-.15.48-.28.48H59.07c-.36,0-.54-.15-.54-.44v-9q0-.36.33-.36h5c.2,0,.3.41.3,1.24s-.1,1.24-.3,1.24H61.28V43Z" transform="translate(-45.82 -34.92)"/><path class="cls-4" d="M65.44,48.27V39.86a.79.79,0,0,1,.18-.55.57.57,0,0,1,.46-.2h2.34a4.66,4.66,0,0,1,3.38,1.12A4.73,4.73,0,0,1,73,43.76q0,5.16-4.4,5.16h-2.4C65.68,48.92,65.44,48.7,65.44,48.27Zm2.7-6.5V46a.93.93,0,0,0,0,.37c0,.05.11.08.25.08a1.33,1.33,0,0,0,1.17-.58,3.41,3.41,0,0,0,.4-1.91,2.58,2.58,0,0,0-.41-1.74,1.79,1.79,0,0,0-1.31-.41Z" transform="translate(-45.82 -34.92)"/><path class="cls-5" d="M74.44,45.5a8.09,8.09,0,0,0,.92.57,2.51,2.51,0,0,0,1.25.37c.4,0,.59-.16.59-.47A.5.5,0,0,0,77,45.6a2.91,2.91,0,0,0-.62-.37l-.67-.33a5.7,5.7,0,0,1-.6-.39,2.2,2.2,0,0,1-.57-.57,3.48,3.48,0,0,1-.56-2,2.72,2.72,0,0,1,.92-2.08,3.37,3.37,0,0,1,2.4-.85,7.32,7.32,0,0,1,1.87.22c.57.14.86.33.88.57v.08a3.33,3.33,0,0,1-.31,1.24,2.54,2.54,0,0,1-.43.83,3.68,3.68,0,0,0-1.61-.46c-.47,0-.7.17-.7.51s.17.38.51.54l.33.16.48.23c.18.09.38.2.59.33a5.7,5.7,0,0,1,.68.54,2.46,2.46,0,0,1,.74,1.85,3.64,3.64,0,0,1-.82,2.46,3.33,3.33,0,0,1-2.56,1,7.86,7.86,0,0,1-1.52-.14,2.85,2.85,0,0,1-1.18-.55,1.22,1.22,0,0,1-.51-1A3.28,3.28,0,0,1,74,46.25,1.66,1.66,0,0,1,74.44,45.5Z" transform="translate(-45.82 -34.92)"/><path class="cls-6" d="M86.1,39.39c0-.19.51-.28,1.53-.28s1.52.09,1.52.28v6.43a2.94,2.94,0,0,1-1,2.33,4.07,4.07,0,0,1-2.82.91,4.45,4.45,0,0,1-2.93-.93,3.12,3.12,0,0,1-1.13-2.52V39.4c0-.19.51-.28,1.52-.28s1.52.09,1.52.28v6.32a.5.5,0,0,0,.3.45,1.33,1.33,0,0,0,.64.17,1.13,1.13,0,0,0,.61-.16.49.49,0,0,0,.27-.46Z" transform="translate(-45.82 -34.92)"/><path class="cls-7" d="M91.54,49c-.85,0-1.27-.1-1.27-.28V39.58c0-.31.14-.47.43-.47h2.47a4.31,4.31,0,0,1,3,.85,3.24,3.24,0,0,1,.92,2.48,3.94,3.94,0,0,1-.87,2.47,3,3,0,0,1-1.27.9,5.42,5.42,0,0,1-2,.33v2.51c0,.11-.17.19-.52.23A8.38,8.38,0,0,1,91.54,49ZM93,41.54v2.22h.19a1.15,1.15,0,0,0,.82-.31,1.09,1.09,0,0,0,.34-.87,1.16,1.16,0,0,0-.23-.8,1.13,1.13,0,0,0-.82-.24Z" transform="translate(-45.82 -34.92)"/><path class="cls-8" d="M102.87,43c.18,0,.26.33.26,1a4.83,4.83,0,0,1-.06.7c0,.26-.12.4-.23.4h-1.78v1.4h2.58c.16,0,.27.2.32.62a3.28,3.28,0,0,1,0,.56,4.27,4.27,0,0,1-.08.78c-.06.32-.15.48-.28.48H98.85c-.36,0-.54-.15-.54-.44v-9q0-.36.33-.36h5c.2,0,.3.41.3,1.24s-.1,1.24-.3,1.24h-2.59V43Z" transform="translate(-45.82 -34.92)"/><path class="cls-9" d="M107.9,48.72c0,.15-.44.23-1.33.23s-1.35-.07-1.35-.21V39.6c0-.33.18-.49.52-.49h2.68c2.46,0,3.69,1,3.69,2.87a3.73,3.73,0,0,1-.34,1.58,2.91,2.91,0,0,1-1,1.13l1.76,2.94a1.85,1.85,0,0,1-.73.77,2.61,2.61,0,0,1-1.38.6.93.93,0,0,1-.82-.39l-1.32-3.07h-.43Zm0-7.13v2.1H108c.89,0,1.33-.37,1.33-1.11a1,1,0,0,0-.26-.75,1.2,1.2,0,0,0-.84-.24Z" transform="translate(-45.82 -34.92)"/><path class="cls-9" d="M113,39.29s.2-.09.61-.13a8.26,8.26,0,0,1,1-.07c1,0,1.58.14,1.62.41l1.21,6.17,1.14-6.17c0-.27.63-.41,1.73-.41.28,0,.62,0,1,.06s.61.08.61.12l-2.48,9.28c0,.15-.31.25-.82.3a12.4,12.4,0,0,1-2.17,0c-.65,0-1-.15-1-.28Z" transform="translate(-45.82 -34.92)"/><path class="cls-9" d="M123.68,46.51v-5h-1c-.16,0-.27-.2-.34-.61a3.86,3.86,0,0,1,0-.6,4,4,0,0,1,0-.6c.07-.4.18-.6.34-.6h4.71c.16,0,.26.2.32.6a3.05,3.05,0,0,1,.06.6,2.91,2.91,0,0,1-.06.6c-.06.41-.16.61-.32.61h-.94v5h1c.16,0,.27.2.34.6a3.69,3.69,0,0,1,0,1.21c-.07.4-.18.6-.34.6h-4.72q-.24,0-.33-.6a3.69,3.69,0,0,1,0-1.21q.09-.6.33-.6Z" transform="translate(-45.82 -34.92)"/><path class="cls-9" d="M129.14,45.5a7,7,0,0,0,.91.57,2.51,2.51,0,0,0,1.25.37c.4,0,.6-.16.6-.47a.51.51,0,0,0-.17-.37,2.67,2.67,0,0,0-.62-.37l-.67-.33a5.7,5.7,0,0,1-.6-.39,2.31,2.31,0,0,1-.56-.57,3.41,3.41,0,0,1-.57-2,2.72,2.72,0,0,1,.92-2.08A3.41,3.41,0,0,1,132,39a7.3,7.3,0,0,1,1.86.22c.57.14.87.33.88.57v.08a3.49,3.49,0,0,1-.3,1.24,2.47,2.47,0,0,1-.44.83,3.68,3.68,0,0,0-1.6-.46c-.48,0-.71.17-.71.51s.17.38.52.54l.32.16.48.23a6.05,6.05,0,0,1,.59.33,5.7,5.7,0,0,1,.68.54,2.42,2.42,0,0,1,.74,1.85,3.64,3.64,0,0,1-.82,2.46,3.29,3.29,0,0,1-2.55,1,7.79,7.79,0,0,1-1.52-.14,2.84,2.84,0,0,1-1.19-.55,1.21,1.21,0,0,1-.5-1,3.28,3.28,0,0,1,.21-1.14A1.66,1.66,0,0,1,129.14,45.5Z" transform="translate(-45.82 -34.92)"/><path class="cls-9" d="M137.14,46.51v-5h-1c-.15,0-.27-.2-.33-.61a3.86,3.86,0,0,1,0-.6,4,4,0,0,1,0-.6c.06-.4.18-.6.33-.6h4.71q.24,0,.33.6a4,4,0,0,1,0,.6,3.83,3.83,0,0,1,0,.6c-.06.41-.17.61-.33.61h-.93v5h1c.15,0,.27.2.33.6a3.08,3.08,0,0,1,0,1.21c-.06.4-.18.6-.33.6h-4.73c-.16,0-.26-.2-.32-.6a3.08,3.08,0,0,1,0-1.21c.06-.4.16-.6.32-.6Z" transform="translate(-45.82 -34.92)"/><path class="cls-9" d="M146.4,49.06a4.23,4.23,0,0,1-3.21-1.29A5.22,5.22,0,0,1,142,44a5.15,5.15,0,0,1,1.25-3.74A4.36,4.36,0,0,1,146.44,39a4.28,4.28,0,0,1,3.2,1.25,5.25,5.25,0,0,1,1.22,3.8,5.11,5.11,0,0,1-1.25,3.79A4.38,4.38,0,0,1,146.4,49.06Zm0-7.39a1.36,1.36,0,0,0-1.12.62,2.82,2.82,0,0,0-.46,1.73,2.88,2.88,0,0,0,.43,1.71,1.35,1.35,0,0,0,1.15.6,1.39,1.39,0,0,0,1.15-.61A2.89,2.89,0,0,0,148,44a2.8,2.8,0,0,0-.46-1.73A1.37,1.37,0,0,0,146.4,41.67Z" transform="translate(-45.82 -34.92)"/><path class="cls-9" d="M159.66,48.61c0,.2-.44.29-1.31.29s-1.36-.07-1.43-.21l-2.34-4.37v4.36c0,.17-.44.25-1.3.25s-1.3-.08-1.3-.25V39.3q0-.21,1.11-.21a8.26,8.26,0,0,1,1,.08c.38,0,.62.15.7.29l2.25,4.31v-4.4c0-.17.43-.26,1.3-.26s1.3.09,1.3.26Z" transform="translate(-45.82 -34.92)"/><line class="cls-10" x1="36.86" y1="1.12" x2="36.86" y2="5.79"/><line class="cls-10" x1="41.83" y1="1.12" x2="41.83" y2="5.79"/><circle class="cls-11" cx="37.66" cy="1.08" r="0.58"/><circle class="cls-11" cx="41.03" cy="1.08" r="0.58"/><rect class="cls-9" x="69.75" y="19.01" width="4" height="3"/><circle class="cls-12" cx="76.18" cy="20.36" r="2.5"/><circle class="cls-13" cx="76.18" cy="20.36" r="0.71"/><line class="cls-14" x1="45.18" y1="20.84" x2="69.68" y2="20.58"/><path class="cls-14" d="M85.5,50.26a5.5,5.5,0,0,0,5.5,5.5" transform="translate(-45.82 -34.92)"/></svg>